<?xml version="1.0" encoding="UTF-8" standalone="no"?>
<!-- Created with Inkscape (http://www.inkscape.org/) -->

<svg
   xmlns:dc="http://purl.org/dc/elements/1.1/"
   xmlns:cc="http://creativecommons.org/ns#"
   xmlns:rdf="http://www.w3.org/1999/02/22-rdf-syntax-ns#"
   xmlns:svg="http://www.w3.org/2000/svg"
   xmlns="http://www.w3.org/2000/svg"
   xmlns:xlink="http://www.w3.org/1999/xlink"
   xmlns:sodipodi="http://sodipodi.sourceforge.net/DTD/sodipodi-0.dtd"
   xmlns:inkscape="http://www.inkscape.org/namespaces/inkscape"
   width="68.26667"
   height="68.26667"
   id="svg5453"
   version="1.1"
   inkscape:version="0.92.0 r"
   sodipodi:docname="folder-network.svg"
   viewBox="0 0 64 64">
  <defs
     id="defs5455">
    <linearGradient
       id="linearGradient4232"
       inkscape:collect="always">
      <stop
         id="stop4234"
         offset="0"
         style="stop-color:#000000;stop-opacity:0.27450982" />
      <stop
         id="stop4236"
         offset="1"
         style="stop-color:#000000;stop-opacity:0;" />
    </linearGradient>
    <linearGradient
       inkscape:collect="always"
       id="Shadow">
      <stop
         style="stop-color:#000000;stop-opacity:1;"
         offset="0"
         id="stop4275" />
      <stop
         style="stop-color:#000000;stop-opacity:0;"
         offset="1"
         id="stop4277" />
    </linearGradient>
    <linearGradient
       id="linearGradient4308"
       inkscape:collect="always">
      <stop
         id="stop4310"
         offset="0"
         style="stop-color:#000000;stop-opacity:0.19607843" />
      <stop
         id="stop4312"
         offset="1"
         style="stop-color:#000000;stop-opacity:0;" />
    </linearGradient>
    <radialGradient
       r="1.5"
       fy="42.5"
       fx="4"
       cy="42.5"
       cx="4"
       gradientTransform="matrix(-2.0000003,-2.935184e-6,3.9135795e-6,-2.6666677,397.57127,654.1314)"
       gradientUnits="userSpaceOnUse"
       id="radialGradient4259-2"
       xlink:href="#Shadow"
       inkscape:collect="always" />
    <radialGradient
       r="1.5"
       fy="42.500004"
       fx="44"
       cy="42.500004"
       cx="44"
       gradientTransform="matrix(-5.6193702e-6,2.666668,-2.0000002,-4.214526e-6,528.5717,423.4648)"
       gradientUnits="userSpaceOnUse"
       id="radialGradient4255-2"
       xlink:href="#Shadow"
       inkscape:collect="always" />
    <linearGradient
       y2="46"
       x2="24"
       y1="42"
       x1="24"
       gradientTransform="translate(394.57143,498.798)"
       gradientUnits="userSpaceOnUse"
       id="linearGradient4257-1"
       xlink:href="#Shadow"
       inkscape:collect="always" />
    <linearGradient
       inkscape:collect="always"
       xlink:href="#linearGradient4308"
       id="linearGradient4185"
       x1="32"
       y1="47"
       x2="32"
       y2="48"
       gradientUnits="userSpaceOnUse"
       gradientTransform="translate(384.57143,484.798)" />
    <linearGradient
       inkscape:collect="always"
       xlink:href="#linearGradient4232"
       id="linearGradient4211"
       x1="416.57144"
       y1="531.79797"
       x2="416.57144"
       y2="532.79797"
       gradientUnits="userSpaceOnUse"
       gradientTransform="translate(0,1)" />
    <linearGradient
       inkscape:collect="always"
       xlink:href="#linearGradient4232"
       id="linearGradient4229"
       gradientUnits="userSpaceOnUse"
       x1="32"
       y1="47"
       x2="32"
       y2="48"
       gradientTransform="translate(384.57143,484.798)" />
  </defs>
  <sodipodi:namedview
     id="base"
     pagecolor="#ffffff"
     bordercolor="#2a373e"
     borderopacity="1.0"
     inkscape:pageopacity="0"
     inkscape:pageshadow="2"
     inkscape:zoom="12.90625"
     inkscape:cx="32"
     inkscape:cy="38.198547"
     inkscape:document-units="px"
     inkscape:current-layer="layer1"
     showgrid="true"
     fit-margin-top="0"
     fit-margin-left="0"
     fit-margin-right="0"
     fit-margin-bottom="0"
     inkscape:window-width="1920"
     inkscape:window-height="1048"
     inkscape:window-x="0"
     inkscape:window-y="32"
     inkscape:window-maximized="1"
     inkscape:showpageshadow="false"
     borderlayer="true"
     showguides="true">
    <inkscape:grid
       type="xygrid"
       id="grid4115"
       originx="0"
       originy="0"
       spacingx="1"
       spacingy="1" />
    <sodipodi:guide
       position="22.000011,35.999994"
       orientation="19.999969,0"
       id="guide4260"
       inkscape:locked="false" />
    <sodipodi:guide
       position="22.000011,16.000025"
       orientation="0,20"
       id="guide4262"
       inkscape:locked="false" />
    <sodipodi:guide
       position="42.00001,16.000025"
       orientation="-19.999969,0"
       id="guide4264"
       inkscape:locked="false" />
    <sodipodi:guide
       position="42.00001,35.999994"
       orientation="0,-20"
       id="guide4266"
       inkscape:locked="false" />
  </sodipodi:namedview>
  <metadata
     id="metadata5458">
    <rdf:RDF>
      <cc:Work
         rdf:about="">
        <dc:format>image/svg+xml</dc:format>
        <dc:type
           rdf:resource="http://purl.org/dc/dcmitype/StillImage" />
        <dc:title />
      </cc:Work>
    </rdf:RDF>
  </metadata>
  <g
     inkscape:label="Capa 1"
     inkscape:groupmode="layer"
     id="layer1"
     transform="translate(-384.57143,-483.798)">
    <path
       id="path4249-9"
       d="m 443.57143,540.798 v 4 h 1 c 1.108,0 2,-0.892 2,-2 v -2 z"
       style="opacity:0.7;fill:url(#radialGradient4255-2);fill-opacity:1;stroke:none;stroke-width:2;stroke-linecap:butt;stroke-linejoin:round;stroke-miterlimit:4;stroke-dasharray:none;stroke-opacity:1"
       inkscape:connector-curvature="0" />
    <path
       id="path4251-5"
       d="m 389.57143,540.798 v 4 h 54 v -4 z"
       style="opacity:0.7;fill:url(#linearGradient4257-1);fill-opacity:1;stroke:none;stroke-width:2;stroke-linecap:butt;stroke-linejoin:round;stroke-miterlimit:4;stroke-dasharray:none;stroke-opacity:1"
       inkscape:connector-curvature="0"
       sodipodi:nodetypes="ccccc" />
    <path
       id="path4253-9"
       d="m 386.57143,540.798 v 2 c 0,1.108 0.892,2 2,2 h 1 v -4 z"
       style="opacity:0.7;fill:url(#radialGradient4259-2);fill-opacity:1;stroke:none;stroke-width:2;stroke-linecap:butt;stroke-linejoin:round;stroke-miterlimit:4;stroke-dasharray:none;stroke-opacity:1"
       inkscape:connector-curvature="0" />
    <path
       style="opacity:1;fill:#1a272e;fill-opacity:1;stroke:none;stroke-width:2;stroke-linecap:butt;stroke-linejoin:round;stroke-miterlimit:4;stroke-dasharray:none;stroke-opacity:1"
       d="m 417.57136,496.7981 h 26.00009 c 1.66196,0 2.99995,1.3379 2.99995,2.9999 v 6 c 0,1.662 -1.33799,2.9999 -2.99995,2.9999 h -26.00009 c -1.66197,0 -2.99995,-1.3379 -2.99995,-2.9999 v -6 c 0,-1.662 1.33798,-2.9999 2.99995,-2.9999 z"
       id="rect4194"
       inkscape:connector-curvature="0"
       sodipodi:nodetypes="sssssssss" />
    <path
       style="opacity:1;fill:#e8e5dc;fill-opacity:1;stroke:none;stroke-width:2;stroke-linecap:butt;stroke-linejoin:round;stroke-miterlimit:4;stroke-dasharray:none;stroke-opacity:1"
       d="m 418.5714,498.798 h 24 c 1.108,0 2,0.892 2,2 v 3 c 0,1.108 -0.892,2 -2,2 h -24 c -1.108,0 -2,-0.892 -2,-2 v -3 c 0,-1.108 0.892,-2 2,-2 z"
       id="rect4207"
       inkscape:connector-curvature="0"
       sodipodi:nodetypes="sssssssss" />
    <path
       style="opacity:1;fill:#fffbec;fill-opacity:1;stroke:none;stroke-width:2;stroke-linecap:butt;stroke-linejoin:round;stroke-miterlimit:4;stroke-dasharray:none;stroke-opacity:1"
       d="m 417.5714,499.798 h 25 c 0.55401,0 1,0.446 1,1 v 4 c 0,0.554 -0.44599,1 -1,1 h -25 c -0.55399,0 -1,-0.446 -1,-1 v -4 c 0,-0.554 0.44601,-1 1,-1 z"
       id="rect4209"
       inkscape:connector-curvature="0"
       sodipodi:nodetypes="sssssssss" />
    <path
       inkscape:connector-curvature="0"
       style="opacity:1;fill:#1a272e;fill-opacity:1;stroke:none;stroke-width:2;stroke-linecap:butt;stroke-linejoin:round;stroke-miterlimit:4;stroke-dasharray:none;stroke-opacity:1"
       d="m 389.57141,493.798 c -1.66197,0 -3,1.338 -3,3 v 43 c 0,1.662 1.33803,3 3,3 h 27 27 c 1.66197,0 3,-1.338 3,-3 v -34 c 0,-1.662 -1.33803,-3 -3,-3 h -24 l -2,-8 c -0.13437,-0.5375 -0.446,-1 -1,-1 h -18 z"
       id="path4220" />
    <path
       inkscape:connector-curvature="0"
       style="opacity:1;fill:#2a373e;fill-opacity:1;stroke:none;stroke-width:2;stroke-linecap:butt;stroke-linejoin:round;stroke-miterlimit:4;stroke-dasharray:none;stroke-opacity:1"
       d="m 389.57141,494.798 c -1.108,0 -2,0.892 -2,2 v 43 c 0,1.108 0.892,2 2,2 h 27 27 c 1.108,0 2,-0.892 2,-2 v -34 c 0,-1.108 -0.892,-2 -2,-2 h -25 l -2,-8 c -0.13437,-0.5375 -0.446,-1 -1,-1 h -20 z"
       id="path4223" />
    <rect
       style="opacity:1;fill:#000000;fill-opacity:0.15686275;stroke:none;stroke-width:2;stroke-linecap:butt;stroke-linejoin:round;stroke-miterlimit:4;stroke-dasharray:none;stroke-opacity:1"
       id="rect4213"
       width="20"
       height="1"
       x="406.57144"
       y="516.79797" />
    <path
       style="color:#000000;clip-rule:nonzero;display:inline;overflow:visible;visibility:visible;opacity:1;isolation:auto;mix-blend-mode:normal;color-interpolation:sRGB;color-interpolation-filters:linearRGB;solid-color:#000000;solid-opacity:1;fill:#beb7c8;fill-opacity:1;fill-rule:nonzero;stroke:none;stroke-width:1;stroke-linecap:butt;stroke-linejoin:miter;stroke-miterlimit:4;stroke-dasharray:none;stroke-dashoffset:0;stroke-opacity:1;color-rendering:auto;image-rendering:auto;shape-rendering:auto;text-rendering:auto;enable-background:accumulate"
       d="m 406.57143,512.798 v 4 h 9 v 12 h -2 v 1 h -7 v 2 h 7 v 1 h 6 v -1 h 7 v -2 h -7 v -1 h -2 v -12 h 9 v -4 z m 18,1 c 0.554,0 1,0.446 1,1 0,0.554 -0.446,1 -1,1 -0.554,0 -1,-0.446 -1,-1 0,-0.554 0.446,-1 1,-1 z m -8,16 c 0.554,0 1,0.446 1,1 0,0.554 -0.446,1 -1,1 -0.554,0 -1,-0.446 -1,-1 0,-0.554 0.446,-1 1,-1 z"
       id="folderGlyph-1"
       inkscape:connector-curvature="0" />
    <path
       style="opacity:1;fill:url(#linearGradient4229);fill-opacity:1;stroke:none;stroke-width:2;stroke-linecap:butt;stroke-linejoin:round;stroke-miterlimit:4;stroke-dasharray:none;stroke-opacity:1"
       d="m 406.57143,531.798 v 1 h 7 v -1 z m 13,0 v 1 h 7 v -1 z"
       id="path4192"
       inkscape:connector-curvature="0" />
    <path
       style="opacity:1;fill:url(#linearGradient4185);fill-opacity:1;stroke:none;stroke-width:2;stroke-linecap:butt;stroke-linejoin:round;stroke-miterlimit:4;stroke-dasharray:none;stroke-opacity:1"
       d="m 413.57143,532.798 v 1 h 6 v -1 z"
       id="path4190"
       inkscape:connector-curvature="0" />
    <rect
       style="opacity:1;fill:url(#linearGradient4211);fill-opacity:1;stroke:none;stroke-width:2;stroke-linecap:butt;stroke-linejoin:round;stroke-miterlimit:4;stroke-dasharray:none;stroke-opacity:1"
       id="rect4203"
       width="6"
       height="1.000026"
       x="413.57144"
       y="532.79797" />
  </g>
</svg>
