<?xml version="1.0" encoding="UTF-8" standalone="no"?>
<!-- Created with Inkscape (http://www.inkscape.org/) -->

<svg
   xmlns:dc="http://purl.org/dc/elements/1.1/"
   xmlns:cc="http://creativecommons.org/ns#"
   xmlns:rdf="http://www.w3.org/1999/02/22-rdf-syntax-ns#"
   xmlns:svg="http://www.w3.org/2000/svg"
   xmlns="http://www.w3.org/2000/svg"
   xmlns:xlink="http://www.w3.org/1999/xlink"
   xmlns:sodipodi="http://sodipodi.sourceforge.net/DTD/sodipodi-0.dtd"
   xmlns:inkscape="http://www.inkscape.org/namespaces/inkscape"
   width="68.26667"
   height="68.26667"
   id="svg5453"
   version="1.1"
   inkscape:version="0.92.0 r"
   sodipodi:docname="folder-music.svg"
   viewBox="0 0 64 64">
  <defs
     id="defs5455">
    <linearGradient
       inkscape:collect="always"
       id="linearGradient4295">
      <stop
         style="stop-color:#000000;stop-opacity:0.67832166"
         offset="0"
         id="stop4297" />
      <stop
         style="stop-color:#000000;stop-opacity:0;"
         offset="1"
         id="stop4299" />
    </linearGradient>
    <linearGradient
       inkscape:collect="always"
       id="linearGradient4236">
      <stop
         style="stop-color:#1a1a1a;stop-opacity:0.19607843"
         offset="0"
         id="stop4238" />
      <stop
         style="stop-color:#000000;stop-opacity:0"
         offset="1"
         id="stop4240" />
    </linearGradient>
    <radialGradient
       r="1.5"
       fy="42.5"
       fx="4"
       cy="42.5"
       cx="4"
       gradientTransform="matrix(-2.0000003,-2.935184e-6,3.9135795e-6,-2.6666677,397.57126,654.1314)"
       gradientUnits="userSpaceOnUse"
       id="radialGradient4259"
       xlink:href="#Shadow"
       inkscape:collect="always" />
    <linearGradient
       id="Shadow"
       inkscape:collect="always">
      <stop
         id="stop4186"
         offset="0"
         style="stop-color:#000000;stop-opacity:1;" />
      <stop
         id="stop4188"
         offset="1"
         style="stop-color:#000000;stop-opacity:0;" />
    </linearGradient>
    <linearGradient
       y2="46"
       x2="24"
       y1="42"
       x1="24"
       gradientTransform="translate(394.57142,498.798)"
       gradientUnits="userSpaceOnUse"
       id="linearGradient4257"
       xlink:href="#Shadow"
       inkscape:collect="always" />
    <radialGradient
       r="1.5"
       fy="42.500004"
       fx="44"
       cy="42.500004"
       cx="44"
       gradientTransform="matrix(-5.6193702e-6,2.666668,-2.0000002,-4.214526e-6,528.57169,423.4648)"
       gradientUnits="userSpaceOnUse"
       id="radialGradient4255"
       xlink:href="#Shadow"
       inkscape:collect="always" />
    <linearGradient
       inkscape:collect="always"
       xlink:href="#linearGradient4236"
       id="linearGradient4242"
       x1="416.57144"
       y1="512.79797"
       x2="416.57144"
       y2="532.79797"
       gradientUnits="userSpaceOnUse"
       gradientTransform="translate(0,1)" />
    <radialGradient
       inkscape:collect="always"
       xlink:href="#linearGradient4295"
       id="radialGradient4283"
       cx="410.07144"
       cy="529.29773"
       fx="410.07144"
       fy="529.29773"
       r="3.499994"
       gradientTransform="matrix(1,0,0,1.0000017,0,0.99909861)"
       gradientUnits="userSpaceOnUse" />
    <radialGradient
       inkscape:collect="always"
       xlink:href="#linearGradient4295"
       id="radialGradient4287"
       gradientUnits="userSpaceOnUse"
       gradientTransform="matrix(1,0,0,1.0000017,13,0.99909861)"
       cx="410.07144"
       cy="529.29773"
       fx="410.07144"
       fy="529.29773"
       r="3.499994" />
  </defs>
  <sodipodi:namedview
     id="base"
     pagecolor="#ffffff"
     bordercolor="#2a373e"
     borderopacity="1.0"
     inkscape:pageopacity="0"
     inkscape:pageshadow="2"
     inkscape:zoom="12.90625"
     inkscape:cx="15.57385"
     inkscape:cy="44.397094"
     inkscape:document-units="px"
     inkscape:current-layer="layer1"
     showgrid="true"
     fit-margin-top="0"
     fit-margin-left="0"
     fit-margin-right="0"
     fit-margin-bottom="0"
     inkscape:window-width="1920"
     inkscape:window-height="1048"
     inkscape:window-x="0"
     inkscape:window-y="32"
     inkscape:window-maximized="1"
     inkscape:showpageshadow="false"
     borderlayer="true"
     showguides="true">
    <sodipodi:guide
       position="6.0000114,6.0000261"
       orientation="0,52"
       id="guide4099"
       inkscape:locked="false" />
    <inkscape:grid
       type="xygrid"
       id="grid4115"
       originx="0"
       originy="0"
       spacingx="1"
       spacingy="1" />
    <sodipodi:guide
       position="42.000008,35.999998"
       orientation="20,0"
       id="guide4160"
       inkscape:locked="false" />
    <sodipodi:guide
       position="22.000011,16.000025"
       orientation="0,10"
       id="guide4161"
       inkscape:locked="false" />
    <sodipodi:guide
       position="22.000011,35.999994"
       orientation="10.999969,0"
       id="guide4169"
       inkscape:locked="false" />
    <sodipodi:guide
       position="32.00001,25.999999"
       orientation="0,10"
       id="guide4171"
       inkscape:locked="false" />
    <sodipodi:guide
       position="32.00001,25.000025"
       orientation="-10.999969,0"
       id="guide4173"
       inkscape:locked="false" />
    <sodipodi:guide
       position="32.00001,35.999994"
       orientation="0,-10"
       id="guide4175"
       inkscape:locked="false" />
  </sodipodi:namedview>
  <metadata
     id="metadata5458">
    <rdf:RDF>
      <cc:Work
         rdf:about="">
        <dc:format>image/svg+xml</dc:format>
        <dc:type
           rdf:resource="http://purl.org/dc/dcmitype/StillImage" />
        <dc:title />
      </cc:Work>
    </rdf:RDF>
  </metadata>
  <g
     inkscape:label="Capa 1"
     inkscape:groupmode="layer"
     id="layer1"
     transform="translate(-384.57143,-483.798)">
    <path
       id="path4249"
       d="m 443.57142,540.798 v 4 h 1 c 1.108,0 2,-0.892 2,-2 v -2 z"
       style="opacity:0.7;fill:url(#radialGradient4255);fill-opacity:1;stroke:none;stroke-width:2;stroke-linecap:butt;stroke-linejoin:round;stroke-miterlimit:4;stroke-dasharray:none;stroke-opacity:1"
       inkscape:connector-curvature="0" />
    <path
       id="path4251"
       d="m 389.57142,540.798 v 4 h 54 v -4 z"
       style="opacity:0.7;fill:url(#linearGradient4257);fill-opacity:1;stroke:none;stroke-width:2;stroke-linecap:butt;stroke-linejoin:round;stroke-miterlimit:4;stroke-dasharray:none;stroke-opacity:1"
       inkscape:connector-curvature="0"
       sodipodi:nodetypes="ccccc" />
    <path
       id="path4253"
       d="m 386.57142,540.798 v 2 c 0,1.108 0.892,2 2,2 h 1 v -4 z"
       style="opacity:0.7;fill:url(#radialGradient4259);fill-opacity:1;stroke:none;stroke-width:2;stroke-linecap:butt;stroke-linejoin:round;stroke-miterlimit:4;stroke-dasharray:none;stroke-opacity:1"
       inkscape:connector-curvature="0" />
    <path
       style="opacity:1;fill:#1a272e;fill-opacity:1;stroke:none;stroke-width:2;stroke-linecap:butt;stroke-linejoin:round;stroke-miterlimit:4;stroke-dasharray:none;stroke-opacity:1"
       d="m 417.57137,496.7981 h 26.00009 c 1.66196,0 2.99995,1.3379 2.99995,2.9999 v 6 c 0,1.662 -1.33799,2.9999 -2.99995,2.9999 h -26.00009 c -1.66197,0 -2.99995,-1.3379 -2.99995,-2.9999 v -6 c 0,-1.662 1.33798,-2.9999 2.99995,-2.9999 z"
       id="rect4194"
       inkscape:connector-curvature="0"
       sodipodi:nodetypes="sssssssss" />
    <path
       style="opacity:1;fill:#e8e5dc;fill-opacity:1;stroke:none;stroke-width:2;stroke-linecap:butt;stroke-linejoin:round;stroke-miterlimit:4;stroke-dasharray:none;stroke-opacity:1"
       d="m 418.57141,498.798 h 24 c 1.108,0 2,0.892 2,2 v 3 c 0,1.108 -0.892,2 -2,2 h -24 c -1.108,0 -2,-0.892 -2,-2 v -3 c 0,-1.108 0.892,-2 2,-2 z"
       id="rect4207"
       inkscape:connector-curvature="0"
       sodipodi:nodetypes="sssssssss" />
    <path
       style="opacity:1;fill:#fffbec;fill-opacity:1;stroke:none;stroke-width:2;stroke-linecap:butt;stroke-linejoin:round;stroke-miterlimit:4;stroke-dasharray:none;stroke-opacity:1"
       d="m 417.57141,499.798 h 25 c 0.55401,0 1,0.446 1,1 v 4 c 0,0.554 -0.44599,1 -1,1 h -25 c -0.55399,0 -1,-0.446 -1,-1 v -4 c 0,-0.554 0.44601,-1 1,-1 z"
       id="rect4209"
       inkscape:connector-curvature="0"
       sodipodi:nodetypes="sssssssss" />
    <path
       inkscape:connector-curvature="0"
       style="opacity:1;fill:#1a272e;fill-opacity:1;stroke:none;stroke-width:2;stroke-linecap:butt;stroke-linejoin:round;stroke-miterlimit:4;stroke-dasharray:none;stroke-opacity:1"
       d="m 389.57142,493.798 c -1.66197,0 -3,1.338 -3,3 v 43 c 0,1.662 1.33803,3 3,3 h 27 27 c 1.66197,0 3,-1.338 3,-3 v -34 c 0,-1.662 -1.33803,-3 -3,-3 h -24 l -2,-8 c -0.13437,-0.5375 -0.446,-1 -1,-1 h -18 z"
       id="path4220" />
    <path
       inkscape:connector-curvature="0"
       style="opacity:1;fill:#2a373e;fill-opacity:1;stroke:none;stroke-width:2;stroke-linecap:butt;stroke-linejoin:round;stroke-miterlimit:4;stroke-dasharray:none;stroke-opacity:1"
       d="m 389.57142,494.798 c -1.108,0 -2,0.892 -2,2 v 43 c 0,1.108 0.892,2 2,2 h 27 27 c 1.108,0 2,-0.892 2,-2 v -34 c 0,-1.108 -0.892,-2 -2,-2 h -25 l -2,-8 c -0.13437,-0.5375 -0.446,-1 -1,-1 h -20 z"
       id="path4223" />
    <path
       style="color:#000000;clip-rule:nonzero;display:inline;overflow:visible;visibility:visible;opacity:1;isolation:auto;mix-blend-mode:normal;color-interpolation:sRGB;color-interpolation-filters:linearRGB;solid-color:#000000;solid-opacity:1;fill:url(#linearGradient4242);fill-opacity:1;fill-rule:nonzero;stroke:none;stroke-width:1;stroke-linecap:butt;stroke-linejoin:miter;stroke-miterlimit:4;stroke-dasharray:none;stroke-dashoffset:0;stroke-opacity:1;color-rendering:auto;image-rendering:auto;shape-rendering:auto;text-rendering:auto;enable-background:accumulate"
       d="m 411.57143,513.798 v 2 10 h 2 v -4 -2 -1 h 11 v 1 2 4 h 2 v -12 z m 2,2 h 11 v 1 h -11 z"
       id="path4234"
       inkscape:connector-curvature="0" />
    <ellipse
       style="opacity:1;fill:url(#radialGradient4283);fill-opacity:1;stroke:none;stroke-width:2;stroke-linecap:butt;stroke-linejoin:round;stroke-miterlimit:4;stroke-dasharray:none;stroke-opacity:1"
       id="path4250"
       cx="410.07144"
       cy="530.29773"
       rx="3.499994"
       ry="3.5" />
    <ellipse
       ry="3.5"
       rx="3.499994"
       cy="530.29773"
       cx="423.07138"
       id="ellipse4285"
       style="opacity:1;fill:url(#radialGradient4287);fill-opacity:1;stroke:none;stroke-width:2;stroke-linecap:butt;stroke-linejoin:round;stroke-miterlimit:4;stroke-dasharray:none;stroke-opacity:1" />
    <path
       style="color:#000000;clip-rule:nonzero;display:inline;overflow:visible;visibility:visible;opacity:1;isolation:auto;mix-blend-mode:normal;color-interpolation:sRGB;color-interpolation-filters:linearRGB;solid-color:#000000;solid-opacity:1;fill:#afe9dd;fill-opacity:1;fill-rule:nonzero;stroke:none;stroke-width:1;stroke-linecap:butt;stroke-linejoin:miter;stroke-miterlimit:4;stroke-dasharray:none;stroke-dashoffset:0;stroke-opacity:1;color-rendering:auto;image-rendering:auto;shape-rendering:auto;text-rendering:auto;enable-background:accumulate"
       d="m 411.57143,512.798 v 2 11.3457 c -0.45556,-0.21629 -0.96039,-0.3457 -1.5,-0.3457 -1.939,0 -3.5,1.561 -3.5,3.5 0,1.939 1.561,3.5 3.5,3.5 1.939,0 3.5,-1.561 3.5,-3.5 v -8.5 -2 -1 h 11 v 1 2 5.34766 c -0.45561,-0.21636 -0.96031,-0.34766 -1.5,-0.34766 -1.939,0 -3.5,1.561 -3.5,3.5 0,1.939 1.561,3.5 3.5,3.5 1.939,0 3.5,-1.561 3.5,-3.5 v -16.5 z m 2,2 h 11 v 1 h -11 z"
       id="folderGlyph"
       inkscape:connector-curvature="0"
       sodipodi:nodetypes="cccsssscccccccssssccccccc" />
  </g>
</svg>
