<?xml version="1.0" encoding="UTF-8" standalone="no"?>
<!-- Created with Inkscape (http://www.inkscape.org/) -->

<svg
   xmlns:dc="http://purl.org/dc/elements/1.1/"
   xmlns:cc="http://creativecommons.org/ns#"
   xmlns:rdf="http://www.w3.org/1999/02/22-rdf-syntax-ns#"
   xmlns:svg="http://www.w3.org/2000/svg"
   xmlns="http://www.w3.org/2000/svg"
   xmlns:sodipodi="http://sodipodi.sourceforge.net/DTD/sodipodi-0.dtd"
   xmlns:inkscape="http://www.inkscape.org/namespaces/inkscape"
   id="svg2"
   version="1.1"
   inkscape:version="0.91 r13725"
   width="512"
   height="512"
   sodipodi:docname="folder-videos.svg"
   viewBox="0 0 512 512">
  <metadata
     id="metadata8">
    <rdf:RDF>
      <cc:Work
         rdf:about="">
        <dc:format>image/svg+xml</dc:format>
        <dc:type
           rdf:resource="http://purl.org/dc/dcmitype/StillImage" />
        <dc:title />
      </cc:Work>
    </rdf:RDF>
  </metadata>
  <defs
     id="defs6">
    <clipPath
       clipPathUnits="userSpaceOnUse"
       id="clipPath4718">
      <path
         style="fill:#bb9e7b;fill-opacity:1;stroke:none"
         d="m 288,260 0,-56 c 0,-2.216 1.79756,-4.24472 4,-4 l 32,0 8,8 32.20504,0 c 0,0 3.79496,0 3.79496,4 l 0,48 c 0,2.21598 -1.784,4 -4,4 l -72,0 c -2.216,0 -4,-1.784 -4,-4 z"
         id="path4720"
         inkscape:connector-curvature="0"
         sodipodi:nodetypes="sssccccssss" />
    </clipPath>
    <filter
       inkscape:collect="always"
       style="color-interpolation-filters:sRGB"
       id="filter4730"
       x="-0.054000001"
       width="1.108"
       y="-0.067500003"
       height="1.135">
      <feGaussianBlur
         inkscape:collect="always"
         stdDeviation="1.8"
         id="feGaussianBlur4732" />
    </filter>
  </defs>
  <sodipodi:namedview
     pagecolor="#ffffff"
     bordercolor="#666666"
     borderopacity="1"
     objecttolerance="10"
     gridtolerance="10"
     guidetolerance="10"
     inkscape:pageopacity="0"
     inkscape:pageshadow="2"
     inkscape:window-width="1140"
     inkscape:window-height="802"
     id="namedview4"
     showgrid="false"
     showguides="true"
     inkscape:guide-bbox="true"
     inkscape:zoom="0.97035431"
     inkscape:cx="270.56705"
     inkscape:cy="256"
     inkscape:window-x="314"
     inkscape:window-y="149"
     inkscape:window-maximized="0"
     inkscape:current-layer="g4671"
     inkscape:document-units="px" />
  <g
     transform="translate(226.5678,444.61441)"
     id="g3926">
    <g
       transform="translate(21.737289,-39.127119)"
       id="g4102">
      <g
         id="g4157"
         transform="translate(-671.90801,-288.45425)">
        <g
           id="g4214"
           transform="translate(10.868643,220.39399)">
          <g
             id="g4509"
             transform="translate(756.68343,131.09839)">
            <g
               id="g4626"
               transform="translate(-198.03512,-23.259323)">
              <g
                 id="g4671"
                 transform="translate(-339.10169,-13.042373)">
                <g
                   id="g3824"
                   transform="translate(193.07963,-435.92399)">
                  <path
                     sodipodi:nodetypes="sssccccssss"
                     inkscape:connector-curvature="0"
                     id="path4566"
                     d="m 40.108031,389.35452 0,-302.399997 c 0,-11.9664 9.706848,-22.921492 21.6,-21.600004 l 172.800009,0 43.2,43.200001 173.90722,0 c 0,0 20.49277,0 20.49277,21.6 l 0,259.2 c 0,11.96629 -9.63359,21.6 -21.59999,21.6 l -388.799997,0 c -11.9664,0 -21.6,-9.6336 -21.6,-21.6 z"
                     style="display:inline;fill:#bb9e7b;fill-opacity:1;stroke:none;enable-background:new" />
                  <path
                     transform="matrix(5.4,0,0,5.4,-1515.092,-1011.9455)"
                     sodipodi:nodetypes="sssccccssss"
                     inkscape:connector-curvature="0"
                     id="path4801"
                     d="m 368,269 0,-56 c 0,-2.216 -1.78401,-4 -4,-4 l -32,0 -8,8 -32,0 c -4,0 -4,3.83348 -4,3.83348 L 288,269 c 0,2.21598 1.784,4 4,4 l 72,0 c 2.216,0 4,-1.784 4,-4 z"
                     style="display:inline;opacity:0.5;fill:#000000;fill-opacity:1;stroke:none;filter:url(#filter4730);enable-background:new"
                     clip-path="url(#clipPath4718)" />
                  <path
                     style="display:inline;opacity:0.1;fill:#ffffff;fill-opacity:1;stroke:none;enable-background:new"
                     d="m 61.708031,65.354519 c -11.966388,0 -21.6,9.633604 -21.6,21.600004 l 0,2.7 c 0,-11.9664 9.633612,-21.600004 21.6,-21.600004 l 172.800009,0 43.2,43.200001 0,-2.7 -43.2,-43.200001 -172.800009,0 z"
                     id="path4570"
                     inkscape:connector-curvature="0" />
                  <path
                     style="display:inline;fill:#c6ae91;fill-opacity:1;stroke:none;enable-background:new"
                     d="m 472.10803,432.55452 0,-302.4 c 0,-11.9664 -9.70681,-22.92149 -21.59999,-21.6 l -172.8,0 -43.2,43.2 -172.799985,0 c -21.6,0 -21.6,20.70079 -21.6,20.70079 l 0,260.09921 c 0,11.96629 9.6336,21.6 21.6,21.6 l 388.799985,0 c 11.9664,0 21.60001,-9.6336 21.60001,-21.6 z"
                     id="path4572"
                     inkscape:connector-curvature="0"
                     sodipodi:nodetypes="sssccccssss" />
                  <path
                     style="display:inline;opacity:0.1;fill:#ffffff;fill-opacity:1;stroke:none;enable-background:new"
                     d="m 452.7018,108.38578 c -0.72442,-0.0108 -1.45044,0.0868 -2.19376,0.16866 l -172.8,0 -43.2,43.2 -172.799985,0 c -21.6,0 -21.6,20.5875 -21.6,20.5875 l 0,1.85624 c 0.295332,-3.94057 2.7,-19.74374 21.6,-19.74374 l 172.799985,0 43.2,-43.2 172.8,0 c 0.74332,-0.0821 1.46934,-0.17946 2.19376,-0.16866 10.8661,0.15858 19.40626,10.55024 19.40626,21.76874 l 0,-2.7 c 0,-11.2185 -8.54016,-21.61026 -19.40626,-21.76874 z"
                     id="path4574"
                     inkscape:connector-curvature="0" />
                </g>
                <path
                   inkscape:connector-curvature="0"
                   style="fill:#ffffff;fill-opacity:1"
                   d="m 347.16908,-219.93646 c -8.07404,0 -14.57408,6.50004 -14.57408,14.57409 l 0,116.59266 c 0,8.07405 6.50004,14.57409 14.57408,14.57409 l 145.74082,0 c 8.07404,0 14.57408,-6.50004 14.57408,-14.57409 l 0,-29.14816 58.29634,29.14816 0,-116.59266 -58.29634,29.14815 0,-29.14813 c 0,-8.07405 -6.50004,-14.57409 -14.57408,-14.57409 l -145.74084,0 z"
                   id="path3623" />
              </g>
            </g>
          </g>
        </g>
      </g>
    </g>
  </g>
</svg>
