<?xml version="1.0" encoding="UTF-8" standalone="no"?>
<!-- Created with Inkscape (http://www.inkscape.org/) -->

<svg
   xmlns:dc="http://purl.org/dc/elements/1.1/"
   xmlns:cc="http://creativecommons.org/ns#"
   xmlns:rdf="http://www.w3.org/1999/02/22-rdf-syntax-ns#"
   xmlns:svg="http://www.w3.org/2000/svg"
   xmlns="http://www.w3.org/2000/svg"
   xmlns:xlink="http://www.w3.org/1999/xlink"
   xmlns:sodipodi="http://sodipodi.sourceforge.net/DTD/sodipodi-0.dtd"
   xmlns:inkscape="http://www.inkscape.org/namespaces/inkscape"
   width="68.26667"
   height="68.26667"
   id="svg5453"
   version="1.1"
   inkscape:version="0.92.0 r"
   sodipodi:docname="folder.svg"
   viewBox="0 0 64 64">
  <defs
     id="defs5455">
    <radialGradient
       inkscape:collect="always"
       xlink:href="#Shadow"
       id="radialGradient4259"
       gradientUnits="userSpaceOnUse"
       gradientTransform="matrix(-2.0000003,-2.935184e-6,3.9135795e-6,-2.6666677,397.57127,654.1314)"
       cx="4"
       cy="42.5"
       fx="4"
       fy="42.5"
       r="1.5" />
    <linearGradient
       inkscape:collect="always"
       id="Shadow">
      <stop
         style="stop-color:#000000;stop-opacity:1;"
         offset="0"
         id="stop4186" />
      <stop
         style="stop-color:#000000;stop-opacity:0;"
         offset="1"
         id="stop4188" />
    </linearGradient>
    <linearGradient
       inkscape:collect="always"
       xlink:href="#Shadow"
       id="linearGradient4257"
       gradientUnits="userSpaceOnUse"
       gradientTransform="translate(394.57143,498.798)"
       x1="24"
       y1="42"
       x2="24"
       y2="46" />
    <radialGradient
       inkscape:collect="always"
       xlink:href="#Shadow"
       id="radialGradient4255"
       gradientUnits="userSpaceOnUse"
       gradientTransform="matrix(-5.6193702e-6,2.666668,-2.0000002,-4.214526e-6,528.5717,423.4648)"
       cx="44"
       cy="42.500004"
       fx="44"
       fy="42.500004"
       r="1.5" />
  </defs>
  <sodipodi:namedview
     id="base"
     pagecolor="#ffffff"
     bordercolor="#2a373e"
     borderopacity="1.0"
     inkscape:pageopacity="0"
     inkscape:pageshadow="2"
     inkscape:zoom="8.7504465"
     inkscape:cx="11.75394"
     inkscape:cy="47.825306"
     inkscape:document-units="px"
     inkscape:current-layer="layer1"
     showgrid="true"
     fit-margin-top="0"
     fit-margin-left="0"
     fit-margin-right="0"
     fit-margin-bottom="0"
     inkscape:window-width="1920"
     inkscape:window-height="1050"
     inkscape:window-x="0"
     inkscape:window-y="30"
     inkscape:window-maximized="1"
     inkscape:showpageshadow="false"
     borderlayer="true"
     showguides="true">
    <inkscape:grid
       type="xygrid"
       id="grid4115"
       empspacing="2"
       originx="0"
       originy="0"
       spacingx="1"
       spacingy="1" />
    <sodipodi:guide
       position="59.000009,5.0000261"
       orientation="5,0"
       id="guide4165"
       inkscape:locked="false" />
    <sodipodi:guide
       position="59.000009,2.6367187e-05"
       orientation="0,5"
       id="guide4167"
       inkscape:locked="false" />
    <sodipodi:guide
       position="64.000009,2.6367187e-05"
       orientation="-5,0"
       id="guide4169"
       inkscape:locked="false" />
    <sodipodi:guide
       position="64.000009,5.0000261"
       orientation="0,-5"
       id="guide4171"
       inkscape:locked="false" />
    <sodipodi:guide
       position="1.165039e-05,63.999993"
       orientation="5,0"
       id="guide4173"
       inkscape:locked="false" />
    <sodipodi:guide
       position="1.165039e-05,58.999993"
       orientation="0,5"
       id="guide4175"
       inkscape:locked="false" />
    <sodipodi:guide
       position="5.0000114,58.999993"
       orientation="-5,0"
       id="guide4177"
       inkscape:locked="false" />
    <sodipodi:guide
       position="5.0000114,63.999993"
       orientation="0,-5"
       id="guide4179"
       inkscape:locked="false" />
  </sodipodi:namedview>
  <metadata
     id="metadata5458">
    <rdf:RDF>
      <cc:Work
         rdf:about="">
        <dc:format>image/svg+xml</dc:format>
        <dc:type
           rdf:resource="http://purl.org/dc/dcmitype/StillImage" />
        <dc:title />
      </cc:Work>
    </rdf:RDF>
  </metadata>
  <g
     inkscape:label="Capa 1"
     inkscape:groupmode="layer"
     id="layer1"
     transform="translate(-384.57143,-483.798)">
    <path
       id="path4249"
       d="m 443.57143,540.798 v 4 h 1 c 1.108,0 2,-0.892 2,-2 v -2 z"
       style="opacity:0.7;fill:url(#radialGradient4255);fill-opacity:1;stroke:none;stroke-width:2;stroke-linecap:butt;stroke-linejoin:round;stroke-miterlimit:4;stroke-dasharray:none;stroke-opacity:1"
       inkscape:connector-curvature="0" />
    <path
       id="path4251"
       d="m 389.57143,540.798 v 4 h 54 v -4 z"
       style="opacity:0.7;fill:url(#linearGradient4257);fill-opacity:1;stroke:none;stroke-width:2;stroke-linecap:butt;stroke-linejoin:round;stroke-miterlimit:4;stroke-dasharray:none;stroke-opacity:1"
       inkscape:connector-curvature="0"
       sodipodi:nodetypes="ccccc" />
    <path
       id="path4253"
       d="m 386.57143,540.798 v 2 c 0,1.108 0.892,2 2,2 h 1 v -4 z"
       style="opacity:0.7;fill:url(#radialGradient4259);fill-opacity:1;stroke:none;stroke-width:2;stroke-linecap:butt;stroke-linejoin:round;stroke-miterlimit:4;stroke-dasharray:none;stroke-opacity:1"
       inkscape:connector-curvature="0" />
    <path
       style="opacity:1;fill:#1a272e;fill-opacity:1;stroke:none;stroke-width:2;stroke-linecap:butt;stroke-linejoin:round;stroke-miterlimit:4;stroke-dasharray:none;stroke-opacity:1"
       d="m 417.57138,496.7981 h 26.00009 c 1.66196,0 2.99995,1.3379 2.99995,2.9999 v 6 c 0,1.662 -1.33799,2.9999 -2.99995,2.9999 h -26.00009 c -1.66197,0 -2.99995,-1.3379 -2.99995,-2.9999 v -6 c 0,-1.662 1.33798,-2.9999 2.99995,-2.9999 z"
       id="rect4194"
       inkscape:connector-curvature="0"
       sodipodi:nodetypes="sssssssss" />
    <path
       style="opacity:1;fill:#e8e5dc;fill-opacity:1;stroke:none;stroke-width:2;stroke-linecap:butt;stroke-linejoin:round;stroke-miterlimit:4;stroke-dasharray:none;stroke-opacity:1"
       d="m 418.57142,498.798 h 24 c 1.108,0 2,0.892 2,2 v 3 c 0,1.108 -0.892,2 -2,2 h -24 c -1.108,0 -2,-0.892 -2,-2 v -3 c 0,-1.108 0.892,-2 2,-2 z"
       id="rect4207"
       inkscape:connector-curvature="0"
       sodipodi:nodetypes="sssssssss" />
    <path
       style="opacity:1;fill:#fffbec;fill-opacity:1;stroke:none;stroke-width:2;stroke-linecap:butt;stroke-linejoin:round;stroke-miterlimit:4;stroke-dasharray:none;stroke-opacity:1"
       d="m 417.57142,499.798 h 25 c 0.55401,0 1,0.446 1,1 v 4 c 0,0.554 -0.44599,1 -1,1 h -25 c -0.55399,0 -1,-0.446 -1,-1 v -4 c 0,-0.554 0.44601,-1 1,-1 z"
       id="rect4209"
       inkscape:connector-curvature="0"
       sodipodi:nodetypes="sssssssss" />
    <path
       style="opacity:1;fill:#1a272e;fill-opacity:1;stroke:none;stroke-width:2;stroke-linecap:butt;stroke-linejoin:round;stroke-miterlimit:4;stroke-dasharray:none;stroke-opacity:1"
       d="m 389.57143,493.798 c -1.66197,0 -3,1.338 -3,3 v 43 c 0,1.662 1.33803,3 3,3 h 27 27 c 1.66197,0 3,-1.338 3,-3 v -34 c 0,-1.662 -1.33803,-3 -3,-3 h -24 l -2,-8 c -0.13437,-0.5375 -0.446,-1 -1,-1 h -18 z"
       id="path4220"
       inkscape:connector-curvature="0" />
    <path
       style="opacity:1;fill:#2a373e;fill-opacity:1;stroke:none;stroke-width:2;stroke-linecap:butt;stroke-linejoin:round;stroke-miterlimit:4;stroke-dasharray:none;stroke-opacity:1"
       d="m 389.57143,494.798 c -1.108,0 -2,0.892 -2,2 v 43 c 0,1.108 0.892,2 2,2 h 27 27 c 1.108,0 2,-0.892 2,-2 v -34 c 0,-1.108 -0.892,-2 -2,-2 h -25 l -2,-8 c -0.13437,-0.5375 -0.446,-1 -1,-1 h -20 z"
       id="path4223"
       inkscape:connector-curvature="0" />
  </g>
</svg>
